<?xml version="1.0" encoding="utf-8"?>
<!-- Generator: Adobe Illustrator 27.9.1, SVG Export Plug-In . SVG Version: 6.00 Build 0)  -->
<svg version="1.1" id="Capa_1" xmlns:serif="http://www.serif.com/"
	 xmlns="http://www.w3.org/2000/svg" xmlns:xlink="http://www.w3.org/1999/xlink" x="0px" y="0px" viewBox="0 0 456 456"
	 style="enable-background:new 0 0 456 456;" xml:space="preserve">
<style type="text/css">
	.st0{fill:#FFFFFF;}
</style>
<g>
	<path class="st0" d="M395.5,133.2c0-13.2-7.1-24.7-17.4-30.2c0,0,0,0,0,0c-37.3-21.7-96.1-40.6-149.6-41.7
		c-53.4,1.1-112.3,20-149.6,41.7c0,0,0,0,0,0c-10.3,5.5-17.4,16.9-17.4,30.2c0,0,0,0,0,0.1c0,0,0,0,0,0v190.2c0,0,0,0,0,0
		c0,0,0,0,0,0.1c0,13.2,7.1,24.7,17.4,30.2c0,0,0,0,0,0c37.3,21.7,96.1,40.6,149.6,41.7c53.4-1.1,112.3-20,149.6-41.7c0,0,0,0,0,0
		c10.3-5.5,17.4-16.9,17.4-30.2c0,0,0,0,0-0.1c0,0,0,0,0,0V133.2C395.5,133.3,395.5,133.3,395.5,133.2
		C395.5,133.3,395.5,133.2,395.5,133.2z M264,343.4c-11.8,2.3-23.8,3.7-35.5,4c-38.1-0.8-80-14.3-106.6-29.7c0,0,0,0,0,0
		c-7.4-3.9-12.4-12.1-12.4-21.5c0,0,0,0,0,0V160.6v0c0,0,0,0,0,0c0-9.4,5.1-17.6,12.4-21.5c0,0,0,0,0,0
		c26.6-15.4,68.5-28.9,106.6-29.7c19.7,0.4,40.4,4.2,59.4,9.9l-42.7,42.7c-5.6-0.8-11.2-1.4-16.8-1.5c-23.9,0.7-49.5,8-68,16.2
		v103.5c18.5,8.2,44.1,15.5,68,16.2c11.8-0.3,24-2.3,35.5-5.2V343.4z M347.5,205.3C347.5,205.3,347.5,205.3,347.5,205.3v115.8
		c0,3.4-2.8,6.1-6.1,6.1h-39.7c-3.4,0-6.1-2.8-6.1-6.1V202.3h-0.1c-0.3-2.9-2.7-5.2-5.7-5.2h-0.5h-19.5h-4c-4,0-6.1-4.9-3.2-7.7
		l50.2-49.8c0.7-0.7,2.3-2,4-2.6c1.2-0.5,3-0.8,4.4-0.8l20.2,0c3.4,0,6.2,2.8,6.2,6.2V205.3z"/>
</g>
</svg>
