<?xml version="1.0" encoding="utf-8"?>
<!-- Generator: Adobe Illustrator 23.0.2, SVG Export Plug-In . SVG Version: 6.00 Build 0)  -->
<svg version="1.1" id="Layer_1" xmlns="http://www.w3.org/2000/svg" xmlns:xlink="http://www.w3.org/1999/xlink" x="0px" y="0px"
	 viewBox="0 0 262.2207 245.2032" enable-background="new 0 0 262.2207 245.2032" xml:space="preserve">
<g>
	<path d="M152.0527,118.2539v-16H131.33c-0.7988,5.1485-2.2529,10.4668-4.3916,16H152.0527z"/>
	<polygon points="129.6836,162.4219 262.2207,162.4219 262.2207,159.0879 126.5234,159.0879 	"/>
	<path d="M123.4209,155.8145h133.2998v-33.1211H125.0898c-3.0654,6.9297-7.1523,14.1973-12.3145,21.8906L123.4209,155.8145z"/>
	<path d="M68.3671,69.4004l9.2364,31.1563c0,0,0.1914,0.664,0.3906,1.5175c0.1992-0.8535,0.3906-1.5175,0.3906-1.5175
		l9.2344-31.1563l0.4746-10.6816H67.8906L68.3671,69.4004z"/>
	<path d="M105.041,151.6856l33.0801,34.8984c-8.1915,8.377-12.2188,17.4375-10.4024,19.3535c1.9316,2.0391,9.7363-4.7695,19-13.5508
		c9.2656-8.7832,16.4824-16.2128,14.5498-18.25c-1.8174-1.9179-11.0781,1.6192-19.8818,9.3516l-34.9463-36.8672
		c-1.8887,2.1817-4.6436,3.4668-7.5615,3.4668c-2.0645,0-4.0518-0.6289-5.7442-1.8183c-4.5088-3.1719-5.6015-9.42-2.4336-13.9336
		c7.6006-10.8028,11.92-19.4414,14.3399-26.0723V93.5918V79.7129c0.5293,0.5664,1.0381,1.1797,1.5068,1.8457
		c1.2578,1.8164,2.3262,4.0059,2.9326,6.8613c0.3262,1.5372,0.5254,3.2579,0.5342,5.2383c0,1.5157-0.1152,3.1836-0.3838,5.0117
		c-0.001,0.0098-0.001,0.0196-0.0029,0.0293c-1.2529,8.5606-5.9873,20.7227-17.2901,36.7891
		c-2.538,3.6152-1.6679,8.6035,1.9473,11.1445c1.3985,0.9825,3.0039,1.4551,4.5928,1.4551c2.5185,0,4.9961-1.1855,6.5537-3.4023
		c12.1992-17.3887,18.1982-31.5801,20.0107-43.5821c0.0059-0.041,0.0166-0.0781,0.0225-0.1171
		c0.3691-2.5469,0.5488-4.9844,0.5518-7.3282c0.0117-1.8047-0.1065-3.5371-0.3135-5.207
		c-1.2236-9.8477-5.9815-17.3203-11.2647-21.8984c-3.083-2.7246-6.2812-4.5879-9.1777-5.8282
		c-1.4551-0.6211-2.832-1.0859-4.1543-1.416c-0.7412-0.1797-1.4482-0.3222-2.1855-0.4199
		c-0.5196-0.1113-1.0567-0.1699-1.6084-0.1699h-3.7383l2.8281,2.3926l1.5918,8.5742l-5.6465,1.1426l3.6035,6.0019
		c0,0-12.8359,22.582-16.4375,27.4395c-0.5175,0.6972-0.9062,1.1113-1.1982,1.3203c-0.0693,0.1289-0.1748,0.1855-0.3213,0.1582
		c-0.1465,0.0273-0.252-0.0293-0.3213-0.1582c-0.292-0.209-0.6807-0.6231-1.1982-1.3203
		c-3.6035-4.8575-16.4395-27.4395-16.4395-27.4395l3.6035-6.0019l-5.6465-1.1426l1.5918-8.5742l2.8272-2.3926h-3.7334
		c-0.21,0-0.415,0.0136-0.6211,0.0312l-2.0029-0.0019c-2.9639,0-5.6602,1.6191-7.0567,4.2324c-0.0029,0-0.2568,0.4746-0.7529,1.3789
		c-0.8604,1.5566-2.415,4.3184-4.3525,7.5547c-0.9981,1.668-2.0977,3.4609-3.2569,5.2832l-4.3222-4.5586
		c0.0918,0.8086,0.0976,1.6367-0.0176,2.4785c-0.1709,1.2305-0.3194,2.4102-0.4571,3.5625l2.2627,2.3867
		c-0.3378,0.5-0.6777,0.9981-1.0195,1.4903c-0.8369,1.2109-1.6855,2.3867-2.5205,3.4941c-0.5068,0.6738-1.0068,1.3164-1.4971,1.9277
		c0.0303-0.9218,0.0801-1.9179,0.1553-2.998c0.1963-2.8301,0.5469-6.1973,1.0918-10.1348c0.6025-4.3769-2.4551-8.414-6.833-9.0175
		c-4.377-0.6016-8.415,2.457-9.0166,6.8339c-0.9688,7.0508-1.4316,12.668-1.4346,17.2715c0.002,0.6778,0.0166,1.3281,0.0371,1.9649
		c0.0918,2.8672,0.3819,5.3496,1.0381,7.7129c0.4121,1.4433,0.9697,2.873,1.8867,4.3007c0.7588,1.1797,1.8428,2.3614,3.2198,3.3008
		c0.2343,0.1699,0.4785,0.3301,0.7353,0.4766c0.0342,0.0195,0.0625,0.0449,0.0977,0.0644c0.3115,0.1719,0.6289,0.3203,0.9511,0.4473
		c1.3575,0.5801,2.8262,0.8789,4.1524,0.8789c0.0273,0,0.0537,0,0.0801,0c3.8174-0.0898,6.206-1.582,8.2382-2.9687
		c3.1065-2.2637,5.6749-5.1133,8.2325-8.3125c0.3203-0.4004,0.6416-0.8067,0.9629-1.2188c0.9052-1.1797,1.8027-2.4062,2.6865-3.6504
		l1.6045,1.6914v8.7207v12.5586v18.9395v98c0,6.83,5.5371,12.3633,12.3633,12.3633c6.8281,0,12.3652-5.5333,12.3652-12.3633
		v-77.0254h4.6348v77.0254c0,6.83,5.5371,12.3633,12.3632,12.3633c6.8282,0,12.3653-5.5333,12.3653-12.3633v-72.4336V151.6856z"/>
	<circle cx="77.9941" cy="30.5215" r="22.5"/>
	<path d="M5.498,76.5586l0.9629,0.6524l12.3027-16.543l3.6983,3.9004c1.2099-0.5215,2.5332-0.8164,3.915-0.8164
		c0.4551,0,0.918,0.0332,1.3731,0.0937c0.0947,0.0117,0.1836,0.0371,0.2773,0.0528l-6.5371-6.8965l5.1211-6.8887
		c3.164,0.4316,6.4463-0.9004,8.3564-3.7246c2.6817-3.9648,1.6416-9.3516-2.3232-12.0332
		c-3.9649-2.6797-9.3535-1.6406-12.0352,2.3242c-1.9101,2.8242-1.9218,6.3652-0.3437,9.1426L2.625,74.6153l1.2099,0.8183
		c-0.958,1.1719-2.2676,3.0117-3.083,5.1563C0.3164,81.7344,0.0195,82.9629,0,84.2285c0,1.1016,0.2353,2.2383,0.8144,3.3086
		c2.0156,3.6836,5.2578,7.6153,5.2012,11.1856c-0.0108,1.7656-0.6787,3.5293-2.8262,5.5l1.3477,1.4824
		c2.4599-2.2227,3.4912-4.6406,3.4804-6.9824c-0.0537-4.6797-3.6552-8.6992-5.4433-12.1309
		c-0.4053-0.7578-0.5723-1.539-0.5723-2.3633c-0.0058-0.8066,0.1719-1.6523,0.4551-2.4843c0.416-1.2285,1.0674-2.4297,1.7451-3.4395
		C4.6601,77.6172,5.1142,77.0254,5.498,76.5586z"/>
	<rect x="202.3857" y="102.2539" width="38.667" height="16"/>
	<polygon points="178.8086,0.7696 134.6601,82.0762 137.8027,82.9844 179.5957,0.9961 	"/>
	<polygon points="223.2929,0 214.8886,91.6407 218.0312,92.5489 224.0791,0.2285 	"/>
	<path d="M203.6787,22.9336h-0.002l-11.2822-6.2812c-1.7246-0.959-3.1338-0.1309-3.1338,1.8437v15.5528
		c-0.3945-0.0586-0.7979-0.0997-1.2217-0.084c-1.2344,0.039-2.5654,0.3984-3.8281,1.1015
		c-3.2393,1.8047-4.8047,5.1797-3.4922,7.5371c1.3125,2.3575,5.0039,2.8067,8.2461,1c2.5752-1.4316,4.0635-3.8496,3.9209-5.9668
		l0.0381-0.0117V27.0469c0-1.9746,1.3867-2.7617,3.082-1.75l4.0635,2.4297c1.6943,1.0117,3.0801,3.4551,3.0801,5.4277v8.2266
		c-0.3926-0.0606-0.7979-0.1016-1.2198-0.0879c-1.2343,0.0391-2.5644,0.4004-3.8271,1.1035
		c-3.2412,1.8047-4.8037,5.1797-3.4912,7.5371c1.3105,2.3574,5,2.8047,8.2412,1c2.5752-1.4316,4.0654-3.8496,3.9238-5.9687
		l0.0362-0.0117V28.2676C206.8125,26.2949,205.4033,23.8946,203.6787,22.9336z"/>
	<path d="M181.3593,93.5586c-0.3437-0.1992-0.706-0.3847-1.1035-0.5254c-1.164-0.416-2.5342-0.5644-3.9658-0.3711
		c-3.6768,0.4981-6.3633,3.0684-6.002,5.7422c0.3594,2.6739,3.6309,4.4375,7.3077,3.9395c2.9199-0.3926,5.1894-2.0996,5.832-4.1231
		l0.0371,0.002l6.0918-15.5352c0.7197-1.8359,0.2842-4.584-0.9707-6.1093h-0.002l-8.2109-9.9668
		c-1.2559-1.5215-2.8701-1.2657-3.5908,0.5722l-5.6768,14.4805c-0.3457-0.1992-0.707-0.3848-1.1074-0.5254
		c-1.1631-0.4141-2.5332-0.5645-3.9658-0.3711c-3.6748,0.4981-6.3643,3.0664-6.002,5.7422
		c0.3614,2.6738,3.6338,4.4394,7.3116,3.9414c2.9199-0.3926,5.1884-2.1016,5.8281-4.125l0.04,0.0039l3.8613-9.8477
		c0.7208-1.8398,2.2999-2.0664,3.5088-0.5039l2.8955,3.7442c1.2081,1.5605,1.6065,4.3418,0.8868,6.1777L181.3593,93.5586z"/>
</g>
</svg>
