<?xml version="1.0" encoding="utf-8"?>
<!-- Generator: Adobe Illustrator 27.9.1, SVG Export Plug-In . SVG Version: 6.00 Build 0)  -->
<svg version="1.1" id="Capa_1" xmlns:serif="http://www.serif.com/"
	 xmlns="http://www.w3.org/2000/svg" xmlns:xlink="http://www.w3.org/1999/xlink" x="0px" y="0px" viewBox="0 0 456 456"
	 style="enable-background:new 0 0 456 456;" xml:space="preserve">
<style type="text/css">
	.st0{fill:#E3624C;}
	.st1{fill:#FFFFFF;}
</style>
<g>
	<g>
		<path class="st0" d="M395,132.8c0-13.2-7.1-24.7-17.4-30.2c0,0,0,0,0,0C340.3,81,281.4,62.1,228,61c-53.4,1.1-112.3,20-149.6,41.7
			c0,0,0,0,0,0C68.1,108.2,61,119.6,61,132.8c0,0,0,0,0,0.1c0,0,0,0,0,0v190.2c0,0,0,0,0,0c0,0,0,0,0,0.1c0,13.2,7.1,24.7,17.4,30.2
			c0,0,0,0,0,0C115.7,375,174.6,393.9,228,395c53.4-1.1,112.3-20,149.6-41.7c0,0,0,0,0,0c10.3-5.5,17.4-16.9,17.4-30.2
			c0,0,0,0,0-0.1c0,0,0,0,0,0V132.8C395,132.9,395,132.9,395,132.8C395,132.9,395,132.8,395,132.8z"/>
	</g>
	<path class="st1" d="M160,279.7V176.3c18.5-8.2,44.1-15.5,68-16.2c5.5,0.2,11.2,0.7,16.8,1.5l42.7-42.7
		c-19.1-5.7-39.8-9.5-59.4-9.9c-38.1,0.8-80,14.3-106.6,29.7c0,0,0,0,0,0c-7.4,3.9-12.4,12.1-12.4,21.5c0,0,0,0,0,0v0v135.6
		c0,0,0,0,0,0c0,9.4,5.1,17.6,12.4,21.5c0,0,0,0,0,0C148,332.8,189.9,346.2,228,347c11.7-0.2,23.7-1.7,35.5-4v-52.3
		c-11.5,2.9-23.7,4.8-35.5,5.2C204.1,295.3,178.5,287.9,160,279.7z"/>
	<path class="st1" d="M340.9,135.7l-20.2,0c-1.4,0-3.1,0.4-4.4,0.8c-1.7,0.6-3.2,1.9-4,2.6L262.1,189c-2.9,2.9-0.8,7.7,3.2,7.7h4
		h19.5h0.5c3,0,5.4,2.3,5.7,5.2h0.1v118.8c0,3.4,2.7,6.1,6.1,6.1h39.7c3.4,0,6.1-2.8,6.1-6.1V204.9c0,0,0,0,0,0v-63.1
		C347,138.4,344.3,135.7,340.9,135.7z"/>
</g>
</svg>
