<?xml version="1.0" encoding="UTF-8"?><!DOCTYPE svg PUBLIC "-//W3C//DTD SVG 1.1//EN" "http://www.w3.org/Graphics/SVG/1.1/DTD/svg11.dtd"><svg xmlns="http://www.w3.org/2000/svg" xmlns:xlink="http://www.w3.org/1999/xlink" version="1.1" width="12" height="12" viewBox="0 0 12 12"><path d="M1.5117188,9.0410156 L1.03125,10.96875 L2.9589844,10.488281 C2.9199219,10.308594 2.8564453,10.138672 2.7685547,9.9785156 C2.6806641,9.8183594 2.5742188,9.6757813 2.4492188,9.5507813 C2.3242188,9.4257813 2.1816406,9.3193359 2.0214844,9.2314453 C1.861328,9.1435547 1.6914061,9.0800781 1.5117188,9.0410156 z M8.25,2.0332031 L1.9101563,8.3671875 C2.3242188,8.5039063 2.6806641,8.7216797 2.9794922,9.0205078 C3.2783201,9.3193359 3.4960935,9.6757813 3.6328125,10.089844 L9.9667969,3.75 z M10.03125,0.75 C9.8828125,0.75 9.7529297,0.77050781 9.6416016,0.81152344 C9.5302734,0.85253906 9.4267578,0.90820313 9.3310547,0.97851563 C9.2353516,1.0488281 9.1445313,1.1289063 9.0585938,1.21875 C8.9726563,1.3085938 8.8808594,1.4023438 8.7832031,1.5 L10.5,3.2167969 C10.597656,3.1191406 10.691406,3.0273438 10.78125,2.9414063 C10.871094,2.8554688 10.951172,2.7646484 11.021484,2.6689453 C11.091797,2.5732422 11.147461,2.4697266 11.188477,2.3583984 C11.229492,2.2470703 11.25,2.1171875 11.25,1.96875 C11.25,1.8007813 11.217773,1.6435547 11.15332,1.4970703 C11.088867,1.3505859 11.000977,1.2216797 10.889648,1.1103516 C10.77832,0.99902344 10.649414,0.91113281 10.50293,0.84667969 C10.356445,0.78222656 10.199219,0.75 10.03125,0.75 z M10.037109,0 C10.306641,0 10.560547,0.051757813 10.798828,0.15527344 C11.037109,0.25878906 11.245117,0.39941406 11.422852,0.57714844 C11.600586,0.75488281 11.741211,0.96289063 11.844727,1.2011719 C11.948242,1.4394531 12,1.6933594 12,1.9628906 C12,2.2207031 11.951172,2.4707031 11.853516,2.7128906 C11.755859,2.9550781 11.613281,3.1699219 11.425781,3.3574219 L3.7089844,11.074219 L0,12 L0.92578125,8.2910156 L8.6425781,0.57421875 C8.8300781,0.38671875 9.0449219,0.24414063 9.2871094,0.14648438 C9.5292969,0.048828125 9.7792969,0 10.037109,0 z" /></svg>