<?xml version="1.0" encoding="utf-8"?>
<svg viewBox="0 0 256 256" xmlns="http://www.w3.org/2000/svg">
  <path d="M 64 128 C 64 123.582 67.582 120 72 120 L 121.322 120 L 131.332 64.855 C 133.249 55.888 138.493 46.811 145.071 41.318 C 151.65 35.825 161.535 32.286 170.7 32 L 200 32 C 204.418 32 208 35.582 208 40 C 208 44.418 204.418 48 200 48 L 170.7 48 C 164.4 47.749 159.932 49.754 155.326 53.6 C 150.719 57.446 147.945 61.502 147.068 67.745 L 137.583 120 L 184 120 C 188.418 120 192 123.582 192 128 C 192 132.418 188.418 136 184 136 L 134.678 136 L 124.671 191.129 C 122.754 200.095 117.507 209.189 110.929 214.682 C 104.35 220.175 94.483 223.714 85.318 224 L 56 224 C 51.582 224 48 220.418 48 216 C 48 211.582 51.582 208 56 208 L 85.282 208 C 91.582 208.252 96.068 206.246 100.674 202.4 C 105.281 198.554 108.052 194.514 108.929 188.271 L 118.417 136 L 72 136 C 67.582 136 64 132.418 64 128 Z" style=""/>
</svg>